<svg width="38" height="38" viewBox="0 0 38 38" fill="none" xmlns="http://www.w3.org/2000/svg">
<path d="M7.46068 8.158H28.851C30.0432 8.158 30.7906 9.44588 30.1991 10.481L26.21 17.4618C25.6572 18.4293 24.6282 19.0264 23.5139 19.0264H12.8949M12.8949 19.0264L10.498 22.8614C9.85169 23.8956 10.5952 25.237 11.8146 25.237H28.4212M12.8949 19.0264L6.76632 6.76928C6.24032 5.71727 5.16508 5.05273 3.98889 5.05273H3.5791M12.8949 31.4475C12.8949 32.305 12.1998 33.0001 11.3423 33.0001C10.4848 33.0001 9.78963 32.305 9.78963 31.4475C9.78963 30.59 10.4848 29.8949 11.3423 29.8949C12.1998 29.8949 12.8949 30.59 12.8949 31.4475ZM28.4212 31.4475C28.4212 32.305 27.7261 33.0001 26.8686 33.0001C26.0111 33.0001 25.316 32.305 25.316 31.4475C25.316 30.59 26.0111 29.8949 26.8686 29.8949C27.7261 29.8949 28.4212 30.59 28.4212 31.4475Z" stroke="#01C5BA" stroke-width="2" stroke-linecap="round" stroke-linejoin="round"/>
</svg>
