<svg width="21" height="21" viewBox="0 0 21 21" fill="none" xmlns="http://www.w3.org/2000/svg">
<path fill-rule="evenodd" clip-rule="evenodd" d="M6.19746 3.73486C7.37341 2.59586 8.78987 2.02637 10.4469 2.02637C12.1039 2.02637 13.5137 2.58939 14.6763 3.71545C15.8389 4.8415 16.4201 6.20699 16.4201 7.81194C16.4201 8.61442 16.213 9.53337 15.7988 10.5688C15.3845 11.6043 14.8834 12.575 14.2954 13.481C13.7074 14.3871 13.1262 15.2348 12.5516 16.0244C11.9769 16.8139 11.4892 17.4416 11.0883 17.9076L10.4469 18.5677C10.2865 18.3865 10.0727 18.147 9.80546 17.8493C9.5382 17.5516 9.05714 16.9563 8.36226 16.0632C7.66738 15.1701 7.05937 14.3029 6.53821 13.4616C6.01705 12.6203 5.54267 11.669 5.11506 10.6077C4.68744 9.54632 4.47363 8.61442 4.47363 7.81194C4.47363 6.20699 5.04824 4.84797 6.19746 3.73486Z" stroke="#01C5BA" stroke-width="1.83792" stroke-linecap="round" stroke-linejoin="round"/>
<path d="M11.3658 7.99962C11.3658 8.50715 10.9544 8.91858 10.4469 8.91858C9.93936 8.91858 9.52792 8.50715 9.52792 7.99962C9.52792 7.49209 9.93936 7.08066 10.4469 7.08066C10.9544 7.08066 11.3658 7.49209 11.3658 7.99962Z" stroke="#01C5BA" stroke-width="1.83792" stroke-linecap="round" stroke-linejoin="round"/>
</svg>
