<svg width="28" height="28" viewBox="0 0 28 28" fill="none" xmlns="http://www.w3.org/2000/svg">
<path d="M5.25016 5.83333H21.3231C22.2189 5.83333 22.7805 6.80106 22.3361 7.57883L19.3386 12.8243C18.9232 13.5513 18.1501 14 17.3127 14H9.3335M9.3335 14L7.53245 16.8817C7.04679 17.6587 7.60544 18.6667 8.52179 18.6667H21.0002M9.3335 14L4.72841 4.78984C4.33317 3.99934 3.52522 3.5 2.64142 3.5H2.3335M9.3335 23.3333C9.3335 23.9777 8.81116 24.5 8.16683 24.5C7.5225 24.5 7.00016 23.9777 7.00016 23.3333C7.00016 22.689 7.5225 22.1667 8.16683 22.1667C8.81116 22.1667 9.3335 22.689 9.3335 23.3333ZM21.0002 23.3333C21.0002 23.9777 20.4778 24.5 19.8335 24.5C19.1892 24.5 18.6668 23.9777 18.6668 23.3333C18.6668 22.689 19.1892 22.1667 19.8335 22.1667C20.4778 22.1667 21.0002 22.689 21.0002 23.3333Z" stroke="#9C99AE" stroke-width="2" stroke-linecap="round" stroke-linejoin="round"/>
</svg>
