<svg width="28" height="28" viewBox="0 0 28 28" fill="none" xmlns="http://www.w3.org/2000/svg">
<path d="M11.2593 5.32716C11.4966 4.25957 12.4435 3.5 13.5371 3.5H14.4603C15.5539 3.5 16.5008 4.25958 16.7381 5.32716L16.9748 6.39258C17.7462 6.69455 18.4603 7.11045 19.0967 7.61956L20.1399 7.29121C21.1831 6.96287 22.3144 7.40312 22.8612 8.35024L23.3228 9.14975C23.8696 10.0969 23.6852 11.2967 22.8793 12.0359L22.0741 12.7745C22.1342 13.1743 22.1654 13.5835 22.1654 14C22.1654 14.4165 22.1342 14.8257 22.0741 15.2254L22.8793 15.9641C23.6852 16.7033 23.8696 17.9031 23.3228 18.8502L22.8612 19.6498C22.3144 20.5969 21.1831 21.0371 20.1399 20.7088L19.0967 20.3804C18.4603 20.8895 17.7462 21.3054 16.9748 21.6074L16.7381 22.6728C16.5008 23.7404 15.5539 24.5 14.4603 24.5H13.5371C12.4435 24.5 11.4966 23.7404 11.2593 22.6728L11.0226 21.6074C10.2513 21.3054 9.53708 20.8895 8.90072 20.3804L7.85749 20.7088C6.81431 21.0371 5.68305 20.5969 5.13624 19.6497L4.67464 18.8502C4.12782 17.9031 4.31218 16.7033 5.11812 15.964L5.92338 15.2254C5.86323 14.8257 5.83205 14.4165 5.83205 14C5.83205 13.5835 5.86323 13.1743 5.92338 12.7746L5.11814 12.0359C4.3122 11.2967 4.12784 10.0969 4.67465 9.14976L5.13625 8.35024C5.68307 7.40313 6.81433 6.96288 7.8575 7.29122L8.90073 7.61957C9.53709 7.11045 10.2513 6.69456 11.0226 6.39258L11.2593 5.32716Z" stroke="#9C99AE" stroke-width="2.33333" stroke-linecap="round" stroke-linejoin="round"/>
<path d="M15.1654 14C15.1654 14.6443 14.643 15.1667 13.9987 15.1667C13.3544 15.1667 12.832 14.6443 12.832 14C12.832 13.3557 13.3544 12.8333 13.9987 12.8333C14.643 12.8333 15.1654 13.3557 15.1654 14Z" stroke="#9C99AE" stroke-width="2.33333" stroke-linecap="round" stroke-linejoin="round"/>
</svg>
