<svg width="28" height="28" viewBox="0 0 28 28" fill="none" xmlns="http://www.w3.org/2000/svg">
<path d="M14.0002 2.33325C7.56716 2.33325 2.3335 7.56692 2.3335 13.9999V18.8334C2.3335 20.0281 3.38 20.9999 4.66683 20.9999H5.8335C6.14292 20.9999 6.43966 20.877 6.65845 20.6582C6.87725 20.4394 7.00016 20.1427 7.00016 19.8333V13.8331C7.00016 13.5237 6.87725 13.2269 6.65845 13.0081C6.43966 12.7893 6.14292 12.6664 5.8335 12.6664H4.77416C5.42283 8.15142 9.30783 4.66659 14.0002 4.66659C18.6925 4.66659 22.5775 8.15142 23.2262 12.6664H22.1668C21.8574 12.6664 21.5607 12.7893 21.3419 13.0081C21.1231 13.2269 21.0002 13.5237 21.0002 13.8331V20.9999C21.0002 22.2868 19.9537 23.3333 18.6668 23.3333H16.3335V22.1666H11.6668V25.6666H18.6668C21.2405 25.6666 23.3335 23.5736 23.3335 20.9999C24.6203 20.9999 25.6668 20.0281 25.6668 18.8334V13.9999C25.6668 7.56692 20.4332 2.33325 14.0002 2.33325Z" fill="#9C99AE"/>
</svg>
