<svg width="33" height="34" viewBox="0 0 33 34" fill="none" xmlns="http://www.w3.org/2000/svg">
<path fill-rule="evenodd" clip-rule="evenodd" d="M16.2367 19.4619C17.9592 19.4619 19.6111 18.7776 20.8291 17.5596C22.0471 16.3416 22.7314 14.6896 22.7314 12.9671C22.7314 11.2446 22.0471 9.59267 20.8291 8.37467C19.6111 7.15668 17.9592 6.47241 16.2367 6.47241C14.5142 6.47241 12.8622 7.15668 11.6442 8.37467C10.4262 9.59267 9.74194 11.2446 9.74194 12.9671C9.74194 14.6896 10.4262 16.3416 11.6442 17.5596C12.8622 18.7776 14.5142 19.4619 16.2367 19.4619ZM16.2367 17.8382C16.8763 17.8382 17.5098 17.7122 18.1007 17.4674C18.6917 17.2226 19.2287 16.8638 19.681 16.4115C20.1333 15.9592 20.4921 15.4222 20.7369 14.8312C20.9817 14.2402 21.1077 13.6068 21.1077 12.9671C21.1077 12.3275 20.9817 11.6941 20.7369 11.1031C20.4921 10.5121 20.1333 9.97511 19.681 9.52279C19.2287 9.07047 18.6917 8.71167 18.1007 8.46688C17.5098 8.22209 16.8763 8.09609 16.2367 8.09609C14.9448 8.09609 13.7058 8.60929 12.7923 9.52279C11.8788 10.4363 11.3656 11.6753 11.3656 12.9671C11.3656 14.259 11.8788 15.498 12.7923 16.4115C13.7058 17.325 14.9448 17.8382 16.2367 17.8382Z" fill="#01C5BA"/>
<path fill-rule="evenodd" clip-rule="evenodd" d="M32.4736 17.0264C32.4736 25.994 25.2044 33.2632 16.2368 33.2632C7.26922 33.2632 0 25.994 0 17.0264C0 8.05877 7.26922 0.789551 16.2368 0.789551C25.2044 0.789551 32.4736 8.05877 32.4736 17.0264ZM24.0548 29.3745C21.7175 30.8582 19.0053 31.644 16.2368 31.6395C13.402 31.6441 10.6276 30.8201 8.2548 29.2689C8.05996 29.0254 7.86268 28.7737 7.66215 28.5139C7.4304 28.2094 7.30542 27.8371 7.30657 27.4545C7.30657 26.5801 7.93493 25.847 8.77519 25.7244C14.3322 24.9126 18.1584 24.9824 23.7228 25.7528C24.1258 25.8113 24.494 26.0135 24.7595 26.3223C25.0249 26.631 25.1697 27.0254 25.1671 27.4325C25.1671 27.8222 25.0331 28.2005 24.7912 28.4961C24.5419 28.7997 24.296 29.0928 24.0548 29.3745ZM26.7786 27.1468C26.6487 25.627 25.495 24.3589 23.9452 24.1446C18.2494 23.3563 14.2681 23.2808 8.54057 24.1178C6.98183 24.3451 5.83308 25.6246 5.69669 27.1484C3.07876 24.4296 1.61852 20.8007 1.62368 17.0264C1.62368 8.95586 8.16631 2.41323 16.2368 2.41323C24.3073 2.41323 30.85 8.95586 30.85 17.0264C30.8551 20.7999 29.3955 24.4281 26.7786 27.1468Z" fill="#01C5BA"/>
</svg>
